<svg width="160" height="36" viewBox="0 0 160 36" fill="none" xmlns="http://www.w3.org/2000/svg">
<path d="M9.84049 34.752V12.72C7.10448 14.352 3.60048 15.312 0.000484467 15.936V6.95995C4.46448 6.33595 9.55249 3.93595 12.7205 1.15195H21.5525V34.752H9.84049ZM48.1419 35.856C35.0859 35.856 26.7339 29.424 26.7339 17.952C26.7339 6.47995 35.0859 0.0479507 48.1419 0.0479507C61.2459 0.0479507 69.5979 6.47995 69.5979 17.952C69.5979 29.424 61.2459 35.856 48.1419 35.856ZM48.1899 26.688C54.1899 26.688 57.7419 23.52 57.7419 17.952C57.7419 12.384 54.1899 9.21595 48.1899 9.21595C42.1419 9.21595 38.5899 12.384 38.5899 17.952C38.5899 23.52 42.1419 26.688 48.1899 26.688ZM94.4544 35.856C81.3984 35.856 73.0464 29.424 73.0464 17.952C73.0464 6.47995 81.3984 0.0479507 94.4544 0.0479507C107.558 0.0479507 115.91 6.47995 115.91 17.952C115.91 29.424 107.558 35.856 94.4544 35.856ZM94.5024 26.688C100.502 26.688 104.054 23.52 104.054 17.952C104.054 12.384 100.502 9.21595 94.5024 9.21595C88.4544 9.21595 84.9024 12.384 84.9024 17.952C84.9024 23.52 88.4544 26.688 94.5024 26.688ZM127.183 -4.86374e-05C129.871 -4.86374e-05 131.903 0.943952 133.279 2.83195C134.687 4.68795 135.391 7.31195 135.391 10.704C135.391 14.096 134.735 16.752 133.423 18.672C132.111 20.56 130.031 21.504 127.183 21.504C125.423 21.504 123.935 21.072 122.719 20.208C121.535 19.344 120.639 18.112 120.031 16.512C119.423 14.88 119.119 12.944 119.119 10.704C119.119 7.31195 119.759 4.68795 121.039 2.83195C122.319 0.943952 124.367 -4.86374e-05 127.183 -4.86374e-05ZM127.231 4.89595C126.463 4.89595 125.903 5.37595 125.551 6.33595C125.199 7.29595 125.023 8.76795 125.023 10.752C125.023 12.704 125.199 14.176 125.551 15.168C125.903 16.16 126.463 16.656 127.231 16.656C127.999 16.656 128.559 16.16 128.911 15.168C129.295 14.176 129.487 12.704 129.487 10.752C129.487 8.76795 129.295 7.29595 128.911 6.33595C128.559 5.37595 127.999 4.89595 127.231 4.89595ZM151.519 0.479951L132.511 34.752H126.895L145.903 0.479951H151.519ZM151.183 13.68C152.975 13.68 154.479 14.112 155.695 14.976C156.911 15.808 157.823 17.024 158.431 18.624C159.071 20.192 159.391 22.112 159.391 24.384C159.391 27.776 158.735 30.432 157.423 32.352C156.111 34.24 154.031 35.184 151.183 35.184C149.423 35.184 147.935 34.752 146.719 33.888C145.535 33.024 144.639 31.792 144.031 30.192C143.423 28.56 143.119 26.624 143.119 24.384C143.119 20.992 143.759 18.368 145.039 16.512C146.319 14.624 148.367 13.68 151.183 13.68ZM151.231 18.576C150.463 18.576 149.903 19.056 149.551 20.016C149.199 20.976 149.023 22.448 149.023 24.432C149.023 26.384 149.199 27.856 149.551 28.848C149.903 29.84 150.463 30.336 151.231 30.336C151.999 30.336 152.559 29.856 152.911 28.896C153.295 27.904 153.487 26.416 153.487 24.432C153.487 22.448 153.295 20.976 152.911 20.016C152.559 19.056 151.999 18.576 151.231 18.576Z" fill="white"/>
</svg>
