<svg width="168" height="35" viewBox="0 0 168 35" fill="none" xmlns="http://www.w3.org/2000/svg">
<path d="M0 27.6365L2.31458 22.4726C4.53272 23.907 7.71527 24.9589 10.6085 24.9589C13.5017 24.9589 14.659 24.0983 14.659 22.9507C14.659 19.03 0.385763 21.8988 0.385763 12.6229C0.385763 8.22397 4.05052 4.59009 11.4765 4.59009C14.7555 4.59009 18.1309 5.35511 20.5419 6.78954L18.3238 12.0491C15.9127 10.8059 13.5982 10.1365 11.38 10.1365C8.39036 10.1365 7.32951 11.0928 7.32951 12.336C7.32951 16.1611 21.5063 13.2923 21.5063 22.4726C21.5063 26.7759 17.8416 30.5054 10.4156 30.5054C6.46154 30.4098 2.31458 29.2622 0 27.6365Z" fill="white"/>
<path d="M47.3521 5.06836V29.9317H40.2155V20.1776H30.5714V29.9317H23.5312V5.06836H30.5714V14.4399H40.2155V5.06836H47.3521Z" fill="white"/>
<path d="M68.955 25.0546H58.3465L56.4176 29.836H49.1846L60.2753 4.97266H67.219L78.3097 29.836H70.9802L68.955 25.0546ZM66.9297 19.8907L63.7471 11.9535L60.5646 19.8907H66.9297Z" fill="white"/>
<path d="M80.2393 5.06836H92.1015C100.395 5.06836 106.085 9.84978 106.085 17.5001C106.085 25.1503 100.395 29.9317 92.1015 29.9317H80.2393V5.06836ZM91.7157 24.2897C95.9591 24.2897 98.8524 21.8033 98.8524 17.5001C98.8524 13.1968 95.9591 10.7104 91.7157 10.7104H87.2794V24.2897H91.7157Z" fill="white"/>
<path d="M128.17 24.4809V29.9317H108.014V5.06836H127.688V10.5192H115.054V14.7268H126.145V19.9864H115.054V24.4809H128.17Z" fill="white"/>
<path d="M143.986 23.0464H143.89L141.672 34.9999H149.869L152.28 22.0901L143.986 23.0464Z" fill="#F6C11A"/>
<path d="M153.726 13.6749L156.234 0H148.133L145.625 13.6749H131.352L130.002 21.8033H144.179H154.594H166.553L168 13.6749H153.726Z" fill="#F6C11A"/>
</svg>
